<svg xmlns="http://www.w3.org/2000/svg" xmlns:svg="http://www.w3.org/2000/svg" id="svg8" width="2234.339" height="896.881" version="1.1" viewBox="0 0 591.169 237.3"><metadata id="metadata5"/><rect id="rect824" width="591.169" height="237.3" x="0" y="0" style="opacity:.98000004;fill:none;fill-opacity:1;stroke-width:.42965442"/><g id="g818" transform="translate(-5.3444232)"><text id="text861" x="234.273" y="147.417" style="font-style:normal;font-weight:400;font-size:127.57px;line-height:1.25;font-family:sans-serif;letter-spacing:0;word-spacing:0;fill:#fff;fill-opacity:1;stroke:none;stroke-width:3.18925" xml:space="preserve"><tspan style="font-style:normal;font-variant:normal;font-weight:700;font-stretch:normal;font-family:'Ubuntu Mono';-inkscape-font-specification:'Ubuntu Mono Bold';stroke-width:3.18925;fill:#fff" id="tspan859" x="234.273" y="147.417">Typer</tspan></text><g id="g18" transform="translate(3.8685904)"><rect style="fill:#fff;fill-opacity:1;stroke:none;stroke-width:1.18399" id="rect17" width="167.083" height="116.31" x="58.725" y="60.495" ry="12"/><rect style="fill:#000;fill-opacity:1;stroke:none;stroke-width:1.04929" id="rect17-3" width="151.512" height="100.739" x="66.511" y="68.28" ry="10.394"/><path style="font-weight:700;font-size:16.9333px;font-family:'Ubuntu Mono';-inkscape-font-specification:'Ubuntu Mono Bold';fill:#fff;stroke-width:1.31142" id="text1-9-0-4-9-2-9-8-3-8-1-7-6" d="m 124.52019,104.09679 v 4.05741 a 3.175,3.175 135 0 1 -3.175,3.175 l -7.33071,0 a 3.175,3.175 135 0 0 -3.175,3.175 l 0,21.70989 a 3.175,3.175 135 0 1 -3.175,3.175 h -4.05741 a 3.175,3.175 45 0 1 -3.175,-3.175 l 0,-21.70989 a 3.175,3.175 45 0 0 -3.175,-3.175 h -7.330717 a 3.175,3.175 45 0 1 -3.175,-3.175 v -4.05741 a 3.175,3.175 135 0 1 3.175,-3.175 h 31.418837 a 3.175,3.175 45 0 1 3.175,3.175 z" aria-label="T" transform="matrix(1.4961339,0,0,1.4961339,7.5596943,-61.118666)"/><path style="color:#000;-inkscape-font-specification:'Ubuntu Mono Bold';fill:#fff;-inkscape-stroke:none" id="path4-08-1-6" d="m -303.02547,937.09797 14.07242,21.48374 a 5.2472832,5.2472832 90.01889 0 1 -0.002,5.7533 l -14.07252,21.45302 a 1.8573075,1.8573075 61.631824 0 0 1.55299,2.87603 l 9.93138,0 a 6.3057385,6.3057385 151.38891 0 0 5.30171,-2.89192 l 13.79332,-21.42124 a 5.3452845,5.3452845 90.017358 0 0 0.002,-5.78497 l -13.79486,-21.45218 a 6.3011967,6.3011967 28.628445 0 0 -5.29996,-2.89305 l -9.92944,0 a 1.8587724,1.8587724 118.38707 0 0 -1.55489,2.87727 z" transform="translate(392.30819,-842.7926)"/></g></g></svg>